<svg width="1922" height="928" viewBox="0 0 1922 928" fill="none" xmlns="http://www.w3.org/2000/svg">
<g opacity="0.6">
<g opacity="0.25">
<path d="M0.99996 1.00012L1 927L1921 927L1921 1.00004L0.99996 1.00012Z" stroke="#87A3D4" stroke-miterlimit="10"/>
<path d="M1872 927L1872 1.00015" stroke="#87A3D4" stroke-miterlimit="10"/>
<path d="M1823 927L1823 1.00003" stroke="#87A3D4" stroke-miterlimit="10"/>
<path d="M1773 927L1773 1.00003" stroke="#87A3D4" stroke-miterlimit="10"/>
<path d="M1724 927L1724 1.00015" stroke="#87A3D4" stroke-miterlimit="10"/>
<path d="M1675 927L1675 1.00015" stroke="#87A3D4" stroke-miterlimit="10"/>
<path d="M1626 927L1626 1.00015" stroke="#87A3D4" stroke-miterlimit="10"/>
<path d="M1576 927L1576 1.00015" stroke="#87A3D4" stroke-miterlimit="10"/>
<path d="M1527 927L1527 1.00003" stroke="#87A3D4" stroke-miterlimit="10"/>
<path d="M1478 927L1478 1.00015" stroke="#87A3D4" stroke-miterlimit="10"/>
<path d="M1429 927L1429 1.00015" stroke="#87A3D4" stroke-miterlimit="10"/>
<path d="M1379 927L1379 1.00003" stroke="#87A3D4" stroke-miterlimit="10"/>
<path d="M1330 927L1330 1.00015" stroke="#87A3D4" stroke-miterlimit="10"/>
<path d="M1281 927L1281 1.00015" stroke="#87A3D4" stroke-miterlimit="10"/>
<path d="M1232 927L1232 1.00015" stroke="#87A3D4" stroke-miterlimit="10"/>
<path d="M1183 927L1183 1.00015" stroke="#87A3D4" stroke-miterlimit="10"/>
<path d="M1133 927L1133 1.00015" stroke="#87A3D4" stroke-miterlimit="10"/>
<path d="M1084 927L1084 1.00015" stroke="#87A3D4" stroke-miterlimit="10"/>
<path d="M1035 927L1035 1.00015" stroke="#87A3D4" stroke-miterlimit="10"/>
<path d="M986 927L986 1.00003" stroke="#87A3D4" stroke-miterlimit="10"/>
<path d="M936 927L936 1.00003" stroke="#87A3D4" stroke-miterlimit="10"/>
<path d="M887 927L887 1.00015" stroke="#87A3D4" stroke-miterlimit="10"/>
<path d="M838 927L838 1.00003" stroke="#87A3D4" stroke-miterlimit="10"/>
<path d="M789 927L789 1.00015" stroke="#87A3D4" stroke-miterlimit="10"/>
<path d="M739 927L739 1.00015" stroke="#87A3D4" stroke-miterlimit="10"/>
<path d="M690 927L690 1.00003" stroke="#87A3D4" stroke-miterlimit="10"/>
<path d="M641 927L641 1.00015" stroke="#87A3D4" stroke-miterlimit="10"/>
<path d="M592 927L592 1.00003" stroke="#87A3D4" stroke-miterlimit="10"/>
<path d="M543 927L543 1.00015" stroke="#87A3D4" stroke-miterlimit="10"/>
<path d="M493 927L493 1.00015" stroke="#87A3D4" stroke-miterlimit="10"/>
<path d="M444 927L444 1.00003" stroke="#87A3D4" stroke-miterlimit="10"/>
<path d="M395 927L395 1.00015" stroke="#87A3D4" stroke-miterlimit="10"/>
<path d="M346 927L346 1.00003" stroke="#87A3D4" stroke-miterlimit="10"/>
<path d="M296 927L296 1.00003" stroke="#87A3D4" stroke-miterlimit="10"/>
<path d="M247 927L247 1.00015" stroke="#87A3D4" stroke-miterlimit="10"/>
<path d="M198 927L198 1.00003" stroke="#87A3D4" stroke-miterlimit="10"/>
<path d="M149 927L149 1.00003" stroke="#87A3D4" stroke-miterlimit="10"/>
<path d="M99 927L99 1.00015" stroke="#87A3D4" stroke-miterlimit="10"/>
<path d="M50 927L50 1.00003" stroke="#87A3D4" stroke-miterlimit="10"/>
<path d="M1 52.0001L1921 52" stroke="#87A3D4" stroke-miterlimit="10"/>
<path d="M1 104L1921 104" stroke="#87A3D4" stroke-miterlimit="10"/>
<path d="M1 155L1921 155" stroke="#87A3D4" stroke-miterlimit="10"/>
<path d="M1 207L1921 207" stroke="#87A3D4" stroke-miterlimit="10"/>
<path d="M1 258L1921 258" stroke="#87A3D4" stroke-miterlimit="10"/>
<path d="M1 310L1921 310" stroke="#87A3D4" stroke-miterlimit="10"/>
<path d="M1 361L1921 361" stroke="#87A3D4" stroke-miterlimit="10"/>
<path d="M1 413L1921 413" stroke="#87A3D4" stroke-miterlimit="10"/>
<path d="M1 464L1921 464" stroke="#87A3D4" stroke-miterlimit="10"/>
<path d="M1 515L1921 515" stroke="#87A3D4" stroke-miterlimit="10"/>
<path d="M1 567L1921 567" stroke="#87A3D4" stroke-miterlimit="10"/>
<path d="M1 618L1921 618" stroke="#87A3D4" stroke-miterlimit="10"/>
<path d="M1 670L1921 670" stroke="#87A3D4" stroke-miterlimit="10"/>
<path d="M1 721L1921 721" stroke="#87A3D4" stroke-miterlimit="10"/>
<path d="M1 773L1921 773" stroke="#87A3D4" stroke-miterlimit="10"/>
<path d="M1 824L1921 824" stroke="#87A3D4" stroke-miterlimit="10"/>
<path d="M1 876L1921 876" stroke="#87A3D4" stroke-miterlimit="10"/>
</g>
</g>
</svg>
