<svg width="1920" height="275" viewBox="0 0 1920 275" fill="none" xmlns="http://www.w3.org/2000/svg">
<path d="M1581.83 79.4064H1712.12C1731.41 79.4064 1747.05 63.7674 1747.05 44.4868V35.029C1747.05 15.7412 1762.69 0.109465 1781.97 0.109465H1920V275H0V0H254.39C273.68 0 289.313 15.639 289.313 34.9195V124.886C289.313 144.174 304.954 159.805 324.237 159.805H345.797C365.087 159.805 380.72 144.166 380.72 124.886V89.7107C380.72 70.4229 396.361 54.7912 415.644 54.7912H545.937C565.227 54.7912 580.86 70.4302 580.86 89.7107V180.48C580.86 199.767 596.501 215.399 615.784 215.399H637.343C656.633 215.399 672.267 199.76 672.267 180.48V50.2447C672.267 30.9569 687.907 15.3252 707.19 15.3252H837.483C856.773 15.3252 872.407 30.9642 872.407 50.2447V196.403C872.407 215.691 888.048 231.323 907.33 231.323H928.89C948.18 231.323 963.814 215.684 963.814 196.403V129.549C963.814 110.261 979.454 94.6294 998.737 94.6294H1074.66C1093.95 94.6294 1109.59 78.9904 1109.59 59.7099V50.252C1109.59 30.9642 1125.23 15.3325 1144.51 15.3325H1274.8C1294.09 15.3325 1309.73 30.9715 1309.73 50.252V194.725C1309.73 214.013 1325.37 229.644 1344.65 229.644H1366.21C1385.5 229.644 1401.13 214.013 1401.13 194.725C1401.13 175.437 1416.77 159.805 1436.06 159.805H1511.98C1531.27 159.805 1546.91 144.166 1546.91 124.886V114.326C1546.91 95.0381 1562.55 79.4064 1581.83 79.4064Z" fill="#E781AF"/>
</svg>
